<svg xmlns="http://www.w3.org/2000/svg" viewBox="0 0 64 64" fill="none">
  <defs>
    <clipPath id="broth-clip">
      <ellipse cx="32" cy="31.5" rx="15.5" ry="8.75" />
    </clipPath>
  </defs>
  <path
    d="M12.5 33.5C12.5 45.65 21.23 55.5 32 55.5C42.77 55.5 51.5 45.65 51.5 33.5H12.5Z"
    fill="#E9EEF3"
  />
  <path
    d="M15 33.5C15 43.98 22.61 52.48 32 52.48C41.39 52.48 49 43.98 49 33.5H15Z"
    fill="#CDD7DF"
  />
  <ellipse cx="32" cy="31.5" rx="15.5" ry="8.75" fill="#D87B2E" />
  <g clip-path="url(#broth-clip)">
    <path
      d="M17.75 30.25C21.24 26.82 24.08 33.68 27.12 30.25C30.16 26.82 32.72 33.68 35.76 30.25C38.8 26.82 41.36 33.68 44.4 30.25C46.43 27.96 47.89 29.75 48.25 30.25"
      stroke="#F7E39D"
      stroke-linecap="round"
      stroke-width="2.4"
    />
    <path
      d="M17.5 34.1C20.99 30.67 23.83 37.53 26.87 34.1C29.91 30.67 32.47 37.53 35.51 34.1C38.55 30.67 41.11 37.53 44.15 34.1C46.18 31.81 47.64 33.6 48 34.1"
      stroke="#F7E39D"
      stroke-linecap="round"
      stroke-width="2.4"
    />
  </g>
  <ellipse
    cx="24.9"
    cy="29.3"
    rx="5.4"
    ry="4.4"
    fill="#FFF8EC"
    transform="rotate(-12 24.9 29.3)"
  />
  <ellipse
    cx="24.9"
    cy="29.3"
    rx="2.5"
    ry="2.05"
    fill="#F0A11C"
    transform="rotate(-12 24.9 29.3)"
  />
  <circle cx="33" cy="26.6" r="1.65" fill="#49A956" />
  <circle cx="29.8" cy="25.4" r="1.2" fill="#49A956" />
  <circle cx="36.1" cy="25.55" r="1.15" fill="#49A956" />
  <path
    d="M22.75 15.4C21.01 12.51 21.23 9.94 23.38 7.7"
    stroke="#E8EEF5"
    stroke-linecap="round"
    stroke-width="2"
  />
  <path
    d="M31.55 13.35C29.89 10.54 30.08 8.03 32.14 5.85"
    stroke="#E8EEF5"
    stroke-linecap="round"
    stroke-width="2"
  />
  <path
    d="M40.35 15.4C38.61 12.51 38.83 9.94 40.98 7.7"
    stroke="#E8EEF5"
    stroke-linecap="round"
    stroke-width="2"
  />
  <path
    d="M44.7 14.5L33.4 28.8"
    stroke="#9D6A37"
    stroke-linecap="round"
    stroke-width="2.6"
  />
  <path
    d="M48.4 16.55L37.1 30.85"
    stroke="#B67D42"
    stroke-linecap="round"
    stroke-width="2.6"
  />
  <path
    d="M12.5 33.5C12.5 45.65 21.23 55.5 32 55.5C42.77 55.5 51.5 45.65 51.5 33.5"
    stroke="#F4F7FA"
    stroke-linecap="round"
    stroke-linejoin="round"
    stroke-width="2.2"
  />
</svg>
